<svg xmlns="http://www.w3.org/2000/svg" viewBox="0 0 40 40"><path d="M13.931,21.344c-.631,3.3-3.537,5.686-6.901,5.686C3.154,27.03,0,23.875,0,20.001s3.153-7.03,7.028-7.03c3.373,0,6.271,2.386,6.901,5.686v-5.293h3.995v1.627c1.115-1.399,2.358-2.02,4.013-2.02,2.907,0,4.708,2.102,4.708,5.503v.247c.548-3.455,3.254-5.749,6.801-5.749,3.894,0,6.554,2.934,6.554,7.212v.887h-9.47c.283,1.938,1.417,3.044,3.117,3.044,1.243,0,2.139-.576,2.413-1.563h3.757c-.53,2.687-3.016,4.479-6.225,4.479-3.601,0-6.389-2.303-6.947-5.74v5.347h-4.058v-7.744c0-1.664-.823-2.587-2.294-2.587-1.38,0-2.294,1.024-2.294,2.587v7.742h-4.068v-5.293h0Zm22.102-2.833c-.256-1.728-1.243-2.733-2.669-2.733-1.435,0-2.441,.987-2.77,2.733h5.439Z"/><path d="M.545,20.228h.505c.031,.17,.129,.244,.327,.244,.165,0,.274-.084,.274-.213,0-.094-.073-.155-.218-.18l-.196-.033c-.451-.076-.647-.243-.647-.55,0-.325,.317-.555,.766-.555,.452,0,.723,.183,.784,.533h-.5c-.023-.137-.124-.211-.287-.211-.153,0-.267,.089-.267,.21,0,.089,.071,.139,.236,.168l.213,.038c.436,.078,.627,.251,.627,.568,0,.342-.312,.571-.777,.571-.498,0-.804-.215-.838-.591h-.002Zm1.7-.341c0-.546,.396-.944,.942-.944,.543,0,.926,.383,.926,.929,0,.553-.391,.947-.939,.947s-.929-.383-.929-.932Zm1.334-.012c0-.328-.155-.536-.401-.536-.243,0-.398,.211-.398,.54,0,.337,.152,.545,.398,.545,.248,0,.401-.211,.401-.548h0Zm.507-.879h.29v-.172c0-.396,.182-.571,.589-.571,.068,0,.15,.007,.196,.015v.375c-.02,0-.042-.002-.066-.002-.149,0-.198,.043-.198,.175v.18h.515v-.553h.52v.553h.812l.188,.842c.026,.12,.053,.249,.074,.37,.026-.125,.058-.251,.089-.368l.22-.83h.426l.223,.83c.026,.102,.058,.234,.084,.347,.031-.17,.048-.252,.069-.347l.188-.843h.513l-.502,1.768h-.5l-.299-1.132-.292,1.132h-.515l-.389-1.398h-.389v.805c0,.152,.054,.203,.213,.203,.046,0,.071-.002,.117-.01v.383c-.087,.017-.187,.028-.266,.028-.419,0-.584-.155-.584-.55v-.86h-.515v1.398h-.522v-1.398h-.29v-.37h0Zm4.636,1.312c0-.32,.208-.482,.741-.573,.287-.048,.391-.114,.391-.249s-.101-.218-.267-.218c-.177,0-.277,.081-.289,.234h-.48c.038-.363,.31-.561,.774-.561,.512,0,.764,.246,.764,.746v.701c0,.218,.012,.281,.069,.375h-.502c-.025-.059-.041-.127-.048-.218-.137,.18-.314,.262-.558,.262-.37,0-.596-.19-.596-.5h0Zm.84-.304c-.248,.05-.34,.119-.34,.256,0,.139,.089,.218,.248,.218,.239,0,.386-.152,.386-.394v-.165c-.076,.036-.139,.054-.294,.086h0Zm1.053-1.008h.517v.271c.112-.203,.259-.3,.457-.3,.023,0,.071,.005,.111,.013v.432c-.033-.008-.068-.012-.14-.012-.254,0-.418,.163-.418,.418v.946h-.526v-1.768h0Zm1.068,.89c0-.563,.37-.944,.916-.944,.52,0,.87,.389,.87,.972v.091h-1.263c.035,.294,.187,.46,.419,.46,.175,0,.289-.083,.327-.233h.492c-.071,.352-.401,.586-.825,.586-.556,0-.936-.378-.936-.932h0Zm1.268-.19c-.033-.269-.158-.413-.361-.413s-.33,.142-.373,.413h.734Z" fill="#fff"/></svg>
