<svg width="120" height="30" viewBox="0 0 120 30" fill="none" xmlns="http://www.w3.org/2000/svg">
<path d="M27.8611 17.6987C26.5997 24.3261 20.7861 29.1176 14.0585 29.1176C6.30713 29.1176 0 22.784 0 15C0 7.19763 6.30713 0.882324 14.0585 0.882324C20.8044 0.882324 26.5997 5.67388 27.8611 12.3013V1.67174H35.8501V4.93954C38.0805 2.1307 40.5667 0.882324 43.8757 0.882324C49.6892 0.882324 53.2907 5.10477 53.2907 11.9341V12.4298C54.3876 5.4903 59.7989 0.882324 66.8921 0.882324C74.6801 0.882324 80 6.77539 80 15.3671V17.1479H61.0603C61.627 21.0399 63.894 23.2613 67.2943 23.2613C69.7806 23.2613 71.5722 22.1047 72.1207 20.122H79.6344C78.574 25.5194 73.6015 29.1176 67.1846 29.1176C59.9817 29.1176 54.4058 24.4913 53.2907 17.5885V28.3282H45.1736V12.7786C45.1736 9.43736 43.5283 7.58316 40.585 7.58316C37.8245 7.58316 35.9964 9.63931 35.9964 12.7786V28.3282H27.8611V17.6987ZM72.0658 12.0075C71.5539 8.5378 69.5795 6.51837 66.7276 6.51837C63.8574 6.51837 61.8464 8.50108 61.1883 12.0075H72.0658Z" fill="black"/>
<path d="M1.09082 15.4593H2.10088C2.16359 15.8007 2.35834 15.9499 2.75444 15.9499C3.08452 15.9499 3.30238 15.7808 3.30238 15.5223C3.30238 15.3333 3.15714 15.2107 2.86667 15.161L2.47387 15.0947C1.57274 14.9422 1.17994 14.6074 1.17994 13.9909C1.17994 13.3379 1.8137 12.8771 2.71153 12.8771C3.61596 12.8771 4.1573 13.245 4.27943 13.9478H3.27927C3.23306 13.6726 3.03171 13.5235 2.70493 13.5235C2.39795 13.5235 2.17019 13.7025 2.17019 13.9445C2.17019 14.1234 2.31213 14.2229 2.64221 14.2826L3.06802 14.3588C3.93944 14.5146 4.32234 14.8626 4.32234 15.4991C4.32234 16.1852 3.69848 16.6459 2.76764 16.6459C1.77079 16.6459 1.16014 16.215 1.09082 15.4593ZM4.49068 14.7731C4.49068 13.676 5.28288 12.8771 6.37546 12.8771C7.46143 12.8771 8.22723 13.6461 8.22723 14.7433C8.22723 15.8537 7.44493 16.6459 6.34905 16.6459C5.25317 16.6459 4.49068 15.8769 4.49068 14.7731ZM7.15775 14.7499C7.15775 14.0903 6.84748 13.6726 6.35565 13.6726C5.87043 13.6726 5.56015 14.0969 5.56015 14.7566C5.56015 15.4328 5.86383 15.8504 6.35565 15.8504C6.85078 15.8504 7.15775 15.4261 7.15775 14.7499ZM8.17111 12.9865H8.75206V12.6418C8.75206 11.8462 9.11515 11.4949 9.93046 11.4949C10.0658 11.4949 10.2308 11.5081 10.3233 11.5247V12.2771C10.2638 12.2738 10.2638 12.2738 10.1912 12.2738C9.89415 12.2738 9.79512 12.36 9.79512 12.6252V12.9865H10.825V11.8761H11.8647V12.9865H13.4888L13.8651 14.677C13.9179 14.919 13.9707 15.1775 14.0136 15.4195C14.0664 15.1676 14.1291 14.9157 14.1918 14.6803L14.6308 13.013H15.4825L15.9281 14.6803C15.9809 14.8858 16.0436 15.151 16.0964 15.3764C16.1591 15.035 16.1921 14.8693 16.2351 14.6803L16.6113 12.9865H17.6379L16.6345 16.5366H15.6343L15.0368 14.2627L14.4526 16.5366H13.4227L12.6437 13.729H11.8647V15.3466C11.8647 15.6515 11.9737 15.7543 12.2906 15.7543C12.383 15.7543 12.4325 15.751 12.5249 15.7344V16.5034C12.35 16.5366 12.1519 16.5598 11.9935 16.5598C11.1551 16.5598 10.825 16.2482 10.825 15.456V13.729H9.79512V16.5366H8.75206V13.729H8.17111V12.9865ZM17.4432 15.6217C17.4432 14.9786 17.8591 14.6538 18.9252 14.4715C19.4996 14.3754 19.7075 14.2428 19.7075 13.971C19.7075 13.6992 19.5062 13.5334 19.1728 13.5334C18.8196 13.5334 18.6183 13.6958 18.5951 14.0041H17.6346C17.7105 13.2749 18.2552 12.8771 19.1827 12.8771C20.206 12.8771 20.711 13.371 20.711 14.3754V15.7841C20.711 16.2217 20.7341 16.3476 20.8496 16.5366H19.8462C19.7967 16.4172 19.7636 16.2813 19.7504 16.099C19.4765 16.4603 19.1233 16.6261 18.6348 16.6261C17.8954 16.6261 17.4432 16.2449 17.4432 15.6217ZM19.1233 15.0085C18.6282 15.1079 18.4433 15.2471 18.4433 15.5223C18.4433 15.8007 18.6216 15.9598 18.9384 15.9598C19.4171 15.9598 19.7108 15.6548 19.7108 15.1676V14.8361C19.559 14.909 19.4336 14.9455 19.1233 15.0085ZM21.2292 12.9865H22.2624V13.5301C22.4868 13.1224 22.7806 12.9268 23.1767 12.9268C23.2229 12.9268 23.3186 12.9368 23.3979 12.9533V13.8218C23.3318 13.8052 23.2625 13.7986 23.1173 13.7986C22.609 13.7986 22.2822 14.1268 22.2822 14.6372V16.5366H21.2292V12.9865ZM23.3649 14.7731C23.3649 13.6428 24.1042 12.8771 25.1968 12.8771C26.2366 12.8771 26.9364 13.6594 26.9364 14.8295V15.0118H24.4112C24.4805 15.6018 24.7842 15.9366 25.2496 15.9366C25.5995 15.9366 25.8273 15.7709 25.9032 15.4692H26.8868C26.7449 16.1753 26.0847 16.6459 25.2364 16.6459C24.124 16.6459 23.3649 15.8869 23.3649 14.7731ZM25.8999 14.3919C25.8339 13.8516 25.583 13.5633 25.177 13.5633C24.771 13.5633 24.5168 13.8483 24.431 14.3919H25.8999Z" fill="white"/>
<text style="white-space: pre; fill: rgb(51, 51, 51); font-family: Arial, sans-serif; font-size: 12px;" x="82.584" y="11.684">DEMO</text>
</svg>
